<?xml version="1.0" encoding="UTF-8"?>
<svg width="512px" height="320px" viewBox="0 0 512 320" version="1.1" xmlns="http://www.w3.org/2000/svg" xmlns:xlink="http://www.w3.org/1999/xlink">
    <!-- Generator: Sketch 53.2 (72643) - https://sketchapp.com -->
    <title>Group 3</title>
    <desc>Created with Sketch.</desc>
    <g id="Page-1" stroke="none" stroke-width="1" fill="none" fill-rule="evenodd">
        <g id="Artboard-Copy-3" transform="translate(-116.000000, -137.000000)">
            <g id="Group-3" transform="translate(116.000000, 137.000000)">
                <g id="Group-2" fill-rule="nonzero">
                    <g id="cloud-computing-(1)">
                        <path d="M441.943,153.317 C441.224,73.031 375.917,8.17 295.468,8.17 C294.542,8.17 293.616,8.181 292.69,8.192 L401.713,311.198 L423.849,311.198 C468.023,311.198 503.83,275.391 503.83,231.217 C503.83,193.275 477.391,161.52 441.943,153.317 Z" id="Path" fill="#8367D8"></path>
                        <path d="M417.422,153.317 C416.812,73.968 361.418,9.674 292.69,8.192 C238.614,9.205 191.706,39.511 167.174,83.892 C161.923,81.626 156.313,80.057 150.441,79.295 C147.816,78.957 145.136,78.783 142.412,78.783 C110.701,78.783 84.534,102.422 80.525,133.033 C39.271,141.214 8.17,177.599 8.17,221.249 C8.17,270.935 48.444,311.198 98.119,311.198 L118.935,311.198 C118.937,311.198 401.714,311.198 401.714,311.198 C440.06,311.198 471.15,275.391 471.15,231.217 C471.149,193.275 448.196,161.52 417.422,153.317 Z" id="Path" fill="#8367D8"></path>
                        <path d="M133.447,311.203 C133.447,306.69 129.79,303.033 125.277,303.033 L98.122,303.033 C53.028,303.033 16.34,266.345 16.34,221.25 C16.34,182.335 44.004,148.603 82.119,141.044 C85.556,140.363 88.177,137.566 88.631,134.091 C92.149,107.215 115.267,86.949 142.407,86.949 C149.873,86.949 157.114,88.445 163.928,91.394 C167.791,93.066 172.289,91.53 174.324,87.849 C198.709,43.74 245.127,16.34 295.463,16.34 C371.047,16.34 433.093,77.821 433.775,153.394 C433.809,157.17 436.425,160.429 440.103,161.28 C472.814,168.85 495.66,197.611 495.66,231.22 C495.66,270.817 463.446,303.032 423.849,303.032 L419.403,303.032 C414.89,303.032 411.233,306.689 411.233,311.202 C411.233,315.715 414.89,319.372 419.403,319.372 L423.848,319.372 C472.454,319.372 511.999,279.827 511.999,231.22 C512,211.183 505.09,191.57 492.545,175.994 L492.545,175.994 C481.534,162.323 466.578,152.194 449.937,147.026 C448.063,108.35 432.017,72.265 404.358,44.837 C375.2,15.923 336.528,0 295.463,0 C241.539,0 191.64,28.119 163.578,73.845 C156.754,71.694 149.661,70.607 142.407,70.607 C109.032,70.607 80.332,94.166 73.411,126.279 C30.55,137.398 0,176.464 0,221.25 C0,275.355 44.017,319.373 98.122,319.373" id="Shape" fill="#8367D8"></path>
                        <path d="M415.371,143.885 C415.395,143.885 415.421,143.885 415.446,143.885 C419.958,143.844 423.582,140.153 423.542,135.641 C423.42,122.183 420.88,109.014 415.992,96.499 C414.349,92.296 409.613,90.219 405.409,91.86 C401.206,93.502 399.129,98.239 400.771,102.443 C404.935,113.101 407.098,124.321 407.202,135.788 C407.243,140.277 410.892,143.885 415.371,143.885 Z" id="Path" fill="#2BF4A1"></path>
                        <path d="M382.507,73.509 C384.123,75.465 386.457,76.476 388.81,76.476 C390.643,76.476 392.487,75.863 394.008,74.604 C397.486,71.73 397.978,66.581 395.104,63.101 C373.828,37.345 342.613,22.573 309.464,22.573 C304.951,22.573 301.294,26.23 301.294,30.743 C301.294,35.256 304.951,38.913 309.464,38.913 C337.722,38.915 364.345,51.523 382.507,73.509 Z" id="Path-2" fill="#2BF4A1"></path>
                    </g>
                    <g id="Group-6" transform="translate(173.000000, 63.000000)">
                        <g id="secure-shield-(1)">
                            <g id="Group" transform="translate(4.974659, 4.522417)" fill="#2BF4A1">
                                <path d="M94.0649201,0.347321637 C64.4987135,17.8056608 33.5717115,31.0174503 0.204413255,40.1590643 L0.204413255,89.9246472 C0.204413255,183.292663 80.9544327,222.154246 94.0649201,222.154246 C107.177216,222.154246 187.929497,183.292663 187.929497,89.9246472 L187.929497,40.1590643 C156.458448,31.5357193 123.534347,17.7468694 94.0649201,0.347321637 Z" id="Shape"></path>
                            </g>
                            <g id="Group">
                                <path d="M194.190331,39.9831423 C162.332164,31.2539727 130.286768,17.661848 101.518316,0.676553606 C99.990191,-0.225668616 98.0939415,-0.225668616 96.566269,0.676553606 C66.9679532,18.1498168 36.654191,31.0065965 3.89153996,39.9831423 C1.77504873,40.5624639 0.307976608,42.4863002 0.307976608,44.6810292 L0.307976608,94.4484211 C0.307976608,145.697809 23.9507212,179.621365 43.7851384,199.054643 C65.1381832,219.977606 90.0114776,231.548211 99.0422924,231.548211 C108.072203,231.548211 132.945497,219.977606 154.298542,199.054643 C174.132507,179.621817 197.773895,145.697809 197.773895,94.4484211 L197.773895,44.680577 C197.773895,42.4863002 196.306823,40.5624639 194.190331,39.9831423 Z M188.032608,94.4479688 C188.032608,142.314589 165.98085,173.969248 147.480546,192.096 C126.482511,212.670737 104.031875,221.806019 99.0422924,221.806019 C94.0527096,221.806019 71.6007173,212.670737 50.60223,192.096 C32.1023782,173.968795 10.0497154,142.314589 10.0497154,94.4479688 L10.0497154,48.3781053 C41.380117,39.4825107 70.557848,27.0680234 99.0431969,10.5146199 C126.81717,26.6288967 157.450667,39.660694 188.032608,48.3762963 L188.032608,94.4479688 Z" id="Shape" fill="#2BF4A1"></path>
                                <path d="M55.869037,47.833154 C54.8831501,45.3299961 52.0552827,44.1003509 49.5516725,45.0866901 C40.8505419,48.5151345 31.9196725,51.6708772 23.007345,54.4666355 C20.9763275,55.1042963 19.5942768,56.9856218 19.5942768,59.1138713 L19.5942768,77.9230565 C19.5942768,80.6129903 21.7754386,82.7936998 24.4649201,82.7936998 C27.1544016,82.7936998 29.3355634,80.6129903 29.3355634,77.9230565 L29.3355634,62.6734659 C37.3307446,60.0866433 45.3173333,57.2253099 53.1225731,54.149614 C55.625731,53.1641793 56.8553762,50.3363119 55.869037,47.833154 Z" id="Path" fill="#8367D8"></path>
                                <path d="M65.1214503,48.7570838 C65.7749396,48.7570838 66.4383782,48.6254815 67.0746823,48.3478051 L67.1642261,48.3089123 C69.6284912,47.2289591 70.7382924,44.3603899 69.6583392,41.8970292 C68.5774815,39.4327641 65.6926316,38.3179883 63.2310799,39.397037 L63.1523899,39.4309552 C60.686768,40.5077427 59.5733489,43.3740507 60.6501365,45.838768 C61.4492476,47.668538 63.242386,48.7570838 65.1214503,48.7570838 Z" id="Path" fill="#8367D8"></path>
                                <path d="M157.073497,157.05586 C154.82269,155.584717 151.804429,156.217404 150.331478,158.469115 C146.317832,164.612366 141.609092,170.495127 136.334144,175.952327 C131.996242,180.43947 127.295641,184.621801 122.363041,188.382191 C120.22439,190.012975 119.81285,193.069224 121.443181,195.20878 C122.402386,196.465559 123.852725,197.126737 125.319797,197.126737 C126.350004,197.126737 127.387899,196.801575 128.26977,196.128639 C133.590394,192.071579 138.660023,187.561372 143.337107,182.72329 C149.040327,176.82425 154.137092,170.456686 158.486752,163.797427 C159.958799,161.545263 159.325209,158.527002 157.073497,157.05586 Z" id="Path" fill="#8367D8"></path>
                                <path d="M111.051571,196.021006 L110.772086,196.185622 C108.444398,197.533754 107.648904,200.513123 108.996585,202.840811 C109.899712,204.401045 111.534565,205.272062 113.216452,205.272062 C114.044055,205.272062 114.88432,205.060865 115.651774,204.615407 L115.974222,204.425918 C118.295579,203.06648 119.075244,200.083041 117.715805,197.761684 C116.355462,195.441232 113.371571,194.662924 111.051571,196.021006 Z" id="Path" fill="#8367D8"></path>
                            </g>
                        </g>
                    </g>
                </g>
                <g id="katana" transform="translate(225.000000, 125.000000)" fill-rule="nonzero">
                    <path d="M68.5285992,68.7038911 L63.0398833,74.192607 L6.59708171,17.7498054 C4.24105058,15.3957198 2.71225681,12.3505837 2.22237354,9.07548638 C2.17354086,8.76031128 2.13696498,8.44533074 2.10856031,8.12607004 L2.10447471,8.07937743 L1.54533074,1.72062257 L68.5285992,68.7038911 Z" id="Path" fill="#D6D6D6"></path>
                    <path d="M92.6180934,94.4013619 C92.6180934,95.3933852 92.2398833,96.3875486 91.4817121,97.1457198 C91.4735409,97.1538911 91.4634241,97.1640078 91.4552529,97.172179 C89.9367704,98.6603113 87.4992218,98.6521401 85.9929961,97.1457198 L64.8348249,75.9877432 L70.3235409,70.4990272 L91.4817121,91.6571984 C92.2400778,92.4153696 92.6180934,93.407393 92.6180934,94.4013619 Z" id="Path" fill="#8367D8"></path>
                    <path d="M92.561284,94.4603113 C92.561284,95.4400778 92.1933852,96.4200389 91.4554475,97.172179 C89.936965,98.6603113 87.4994163,98.6521401 85.9931907,97.1457198 L64.8348249,75.9877432 L67.4287938,73.3937743 L86.9931907,92.9581712 C88.5097276,94.4747082 90.792607,94.6474708 92.309144,93.1330739 C92.3132296,93.1270428 92.3192607,93.1208171 92.3233463,93.1167315 C92.4819066,93.5496109 92.561284,94.0050584 92.561284,94.4603113 Z" id="Path" fill="#8367D8"></path>
                    <path d="M65.6297665,71.6027237 L63.0398833,74.192607 L6.59708171,17.7498054 C4.24105058,15.3957198 2.71225681,12.3505837 2.22237354,9.07548638 C2.17354086,8.76031128 2.13696498,8.44533074 2.10856031,8.12607004 L2.10447471,8.07937743 L65.6297665,71.6027237 Z" id="Path" fill="#B3B3B3"></path>
                    <path d="M76.1916342,66.5974708 L60.9332685,81.8558366 C60.6157588,82.1733463 60.1007782,82.1733463 59.7832685,81.8558366 L57.2044747,79.2770428 C56.886965,78.9595331 56.886965,78.4445525 57.2044747,78.1270428 L72.4628405,62.868677 C72.7803502,62.5511673 73.2953307,62.5511673 73.6128405,62.868677 L76.1916342,65.4474708 C76.509144,65.7649805 76.509144,66.2799611 76.1916342,66.5974708 Z" id="Path" fill="#4A4B4C"></path>
                    <path d="M92.6180934,1.72062257 L92.1770428,6.73579767 L92.1180934,7.40466926 L92.0550584,8.12626459 C92.0266537,8.43735409 91.9900778,8.7463035 91.9431907,9.05525292 C91.457393,12.3383268 89.9266537,15.3916342 87.5663424,17.7498054 L30.9710117,74.3451362 L25.4822957,68.8564202 L92.6180934,1.72062257 Z" id="Path" fill="#D6D6D6"></path>
                    <polygon id="Path" fill="#B3B3B3" points="92.6180934 1.72062257 92.1770428 6.73579767 92.1180934 7.40447471 28.0743191 71.448249 25.4824903 68.8564202"></polygon>
                    <path d="M29.3285992,75.9877432 L8.17081712,97.1453307 C6.65505837,98.6610895 4.19785992,98.6610895 2.68210117,97.1453307 L2.68210117,97.1453307 C1.16634241,95.629572 1.16634241,93.172179 2.68210117,91.6566148 L23.8398833,70.4988327 L29.3285992,75.9877432 Z" id="Path" fill="#8367D8"></path>
                    <path d="M5.18929961,94.3324903 L26.4315175,73.0902724 L23.8400778,70.4988327 L2.68210117,91.6566148 C1.16634241,93.1723735 1.16634241,95.629572 2.68210117,97.1453307 L2.68210117,97.1453307 C3.11984436,97.5830739 3.63696498,97.8898833 4.18618677,98.0749027 C3.84319066,96.7817121 4.17509728,95.3466926 5.18929961,94.3324903 Z" id="Path" fill="#8367D8"></path>
                    <path d="M17.9717899,66.5974708 L33.2301556,81.8558366 C33.5476654,82.1733463 34.0626459,82.1733463 34.3801556,81.8558366 L36.9589494,79.2770428 C37.2764591,78.9595331 37.2764591,78.4445525 36.9589494,78.1270428 L21.7005837,62.868677 C21.3830739,62.5511673 20.8680934,62.5511673 20.5505837,62.868677 L17.9717899,65.4474708 C17.6542802,65.7649805 17.6542802,66.2799611 17.9717899,66.5974708 Z" id="Path" fill="#4A4B4C"></path>
                    <path d="M86.4891051,16.6712062 L63.3344358,39.8258755 C62.7389105,40.4215953 62.7389105,41.3867704 63.3344358,41.9822957 C63.6321012,42.2799611 64.0223735,42.4287938 64.4124514,42.4287938 C64.8025292,42.4287938 65.1928016,42.2799611 65.4904669,41.9822957 L88.6453307,18.8274319 C91.4749027,15.9976654 93.22607,12.2439689 93.5758755,8.25797665 L94.1381323,1.85272374 C94.1941634,1.21400778 93.8447471,0.608560311 93.2638132,0.337548638 C92.6828794,0.0663424125 91.9945525,0.187743191 91.5412451,0.641050584 L86.1708171,6.01167315 C85.5754864,6.607393 85.5754864,7.57256809 86.1708171,8.16809339 C86.7661479,8.76322957 87.7317121,8.76322957 88.3270428,8.16809339 L90.7340467,5.76108949 L90.5383268,7.99143969 C90.2507782,11.264786 88.8128405,14.3474708 86.4891051,16.6712062 Z" id="Path" fill="#000000"></path>
                    <path d="M1.60291829,98.2247082 C2.65661479,99.2785992 4.04105058,99.8054475 5.42548638,99.8054475 C6.80992218,99.8054475 8.19435798,99.2785992 9.24805447,98.2247082 L13.5750973,93.8976654 C13.577821,93.8949416 13.5803502,93.8924125 13.5830739,93.8896887 L19.2422179,88.2305447 C19.2447471,88.2280156 19.2470817,88.2256809 19.2496109,88.2231518 L24.9095331,82.5632296 C24.9114786,82.561284 24.9136187,82.559144 24.9157588,82.5570039 L28.3451362,79.1276265 L32.0342412,82.8167315 C32.5071984,83.2896887 33.1361868,83.5501946 33.8050584,83.5501946 C34.4741245,83.5501946 35.1031128,83.2896887 35.5756809,82.8167315 L37.9196498,80.4727626 C38.3924125,79.9998054 38.6529183,79.3710117 38.6529183,78.7023346 C38.6529183,78.0332685 38.3922179,77.4044747 37.9194553,76.9317121 L34.2301556,73.2424125 L47.0817121,60.3910506 L59.933463,73.2431907 L56.2441634,76.9324903 C55.7712062,77.4052529 55.5107004,78.0340467 55.5107004,78.7031128 C55.5107004,79.3717899 55.7712062,80.0005837 56.2441634,80.4737354 L58.5877432,82.8171206 C59.0605058,83.2904669 59.6894942,83.5507782 60.3585603,83.5507782 C61.0274319,83.5507782 61.6564202,83.2902724 62.1291829,82.8173152 L65.8184825,79.1280156 L69.2480545,82.5575875 C69.25,82.5595331 69.2519455,82.5614786 69.2538911,82.5634241 L74.9142023,88.2237354 C74.9163424,88.2258755 74.9188716,88.2284047 74.9212062,88.2307393 L80.5805447,93.8900778 C80.5832685,93.8928016 80.5857977,93.8953307 80.5885214,93.8980545 L84.9155642,98.2250973 C85.9694553,99.2789883 87.3538911,99.8058366 88.7381323,99.8058366 C90.1223735,99.8058366 91.5070039,99.2789883 92.5607004,98.2249027 C94.6682879,96.1175097 94.6682879,92.6877432 92.5607004,90.5799611 L73.4638132,71.4830739 L77.1531128,67.7937743 C77.62607,67.3210117 77.8865759,66.6920233 77.8865759,66.0231518 C77.8865759,65.3540856 77.6258755,64.7252918 77.1531128,64.2527237 L74.8093385,61.9085603 C73.8330739,60.9326848 72.2447471,60.9324903 71.2682879,61.9085603 L67.5789883,65.5980545 L54.7272374,52.7463035 L59.3920233,48.0815175 C59.9873541,47.4857977 59.9873541,46.5206226 59.3920233,45.9250973 C58.7966926,45.3299611 57.8311284,45.3299611 57.2357977,45.9250973 L51.4929961,51.6675097 C51.4928016,51.6675097 51.492607,51.6677043 51.492607,51.6678988 C51.492607,51.6680934 51.4924125,51.6680934 51.4922179,51.6682879 L46.0044747,57.1560311 C46.0042802,57.1562257 46.0038911,57.1566148 46.0035019,57.1568093 C46.0031128,57.1570039 46.0029183,57.157393 46.0027237,57.1575875 L32.0735409,71.0867704 L29.4700389,68.4832685 L28.740856,67.7540856 L42.6694553,53.8256809 C42.6698444,53.8252918 42.670428,53.8249027 42.6710117,53.8243191 C42.6715953,53.8237354 42.6717899,53.8233463 42.6723735,53.8227626 L48.1585603,48.3365759 C48.1589494,48.3361868 48.1593385,48.3357977 48.1599222,48.3354086 C48.1603113,48.3350195 48.1607004,48.3346304 48.1610895,48.3340467 L83.6414397,12.8536965 C84.2367704,12.2579767 84.2367704,11.2928016 83.6414397,10.6972763 C83.0461089,10.1021401 82.0805447,10.1021401 81.485214,10.6972763 L47.0817121,45.1005837 L36.2673152,34.2861868 C35.6717899,33.6910506 34.7064202,33.6910506 34.1110895,34.2861868 C33.5155642,34.8819066 33.5155642,35.8470817 34.1110895,36.442607 L44.9252918,47.2568093 L41.5928016,50.5894942 L7.67373541,16.670428 C5.35116732,14.3498054 3.91381323,11.2678988 3.62607004,7.99143969 L3.43015564,5.76167315 L28.8356031,31.1671206 C29.4311284,31.7622568 30.3964981,31.7622568 30.9918288,31.1671206 C31.5873541,30.5714008 31.5873541,29.6062257 30.9918288,29.0107004 L2.62237354,0.641245136 C2.16906615,0.188132296 1.4807393,0.0667315175 0.899805447,0.337743191 C0.318871595,0.608949416 -0.0305447471,1.21459144 0.0256809339,1.85311284 L0.588715953,8.25875486 C0.938910506,12.2478599 2.68968872,16.0013619 5.51828794,18.8274319 L39.4367704,52.7459144 L26.5850195,65.5976654 L22.8955253,61.9081712 C21.9190661,60.9317121 20.3307393,60.9321012 19.3544747,61.9083658 L17.0107004,64.2521401 C16.5377432,64.7249027 16.2772374,65.3536965 16.2772374,66.0227626 C16.2772374,66.6916342 16.5377432,67.3206226 17.0107004,67.7933852 L20.7,71.4826848 L1.60311284,90.579572 C-0.504863813,92.6873541 -0.504863813,96.1169261 1.60291829,98.2247082 Z M80.4673152,82.7986381 L76.2389105,85.2356031 L72.8050584,81.801751 L77.033463,79.364786 L80.4673152,82.7986381 Z M86.1338521,88.4651751 L81.905642,90.9023346 L78.4717899,87.4684825 L82.7001946,85.0315175 L86.1338521,88.4651751 Z M90.4042802,96.0684825 C89.4854086,96.9877432 87.9902724,96.9877432 87.0715953,96.0684825 L84.1385214,93.1354086 L88.3667315,90.698249 L90.4042802,92.7357977 C91.3229572,93.6544747 91.3229572,95.1496109 90.4042802,96.0684825 Z M74.8005837,77.1319066 L70.572179,79.5688716 L67.9747082,76.9714008 L71.307393,73.638716 L74.8005837,77.1319066 Z M73.038716,64.4501946 L74.6110895,66.0227626 L70.2301556,70.4036965 C70.2297665,70.4040856 70.229572,70.4042802 70.2291829,70.4046693 L64.7402724,75.8935798 C64.7398833,75.8939689 64.7396887,75.8941634 64.7392996,75.8945525 L60.3583658,80.2754864 L58.7859922,78.7031128 L63.1496109,74.3394942 C63.1558366,74.333463 63.1626459,74.3284047 63.168677,74.322179 L68.6575875,68.8332685 C68.6640078,68.8268482 68.6694553,68.8198444 68.6756809,68.8134241 L73.038716,64.4501946 Z M65.4225681,67.7538911 L62.0898833,71.0865759 L49.2381323,58.2346304 L52.5706226,54.9021401 L65.4225681,67.7538911 Z M11.4634241,85.0315175 L15.6918288,87.4684825 L12.2579767,90.9023346 L8.02976654,88.4653696 L11.4634241,85.0315175 Z M17.1301556,79.3645914 L21.3585603,81.8015564 L17.9247082,85.2354086 L13.6963035,82.7984436 L17.1301556,79.3645914 Z M21.1247082,64.4501946 L35.3772374,78.7029183 L33.8048638,80.2752918 L29.42393,75.894358 C29.4235409,75.8939689 29.4233463,75.8937743 29.4229572,75.8933852 L23.9340467,70.4044747 C23.9336576,70.4040856 23.933463,70.4038911 23.9330739,70.4035019 L19.5521401,66.0225681 L21.1247082,64.4501946 Z M26.188716,76.9715953 L23.5912451,79.5690661 L19.3628405,77.1321012 L22.8558366,73.6391051 L26.188716,76.9715953 Z M3.75914397,92.7359922 L5.79688716,90.698249 L10.0250973,93.1354086 L7.09202335,96.0684825 C6.64688716,96.5134241 6.05505837,96.7587549 5.42568093,96.7587549 C4.79610895,96.7587549 4.20428016,96.5136187 3.75933852,96.068677 C2.84046693,95.1496109 2.84046693,93.6544747 3.75914397,92.7359922 Z" id="Shape" fill="#000000"></path>
                </g>
                <polygon id="Path-10" stroke="#8367D8" fill="#8367D8" points="98.2858658 318.754632 417.57652 318.754632 410.811879 311.198 133.399489 311.198"></polygon>
            </g>
        </g>
    </g>
</svg>