<?xml version="1.0" encoding="utf-8"?>
<!-- Generator: Adobe Illustrator 22.1.0, SVG Export Plug-In . SVG Version: 6.00 Build 0)  -->
<svg version="1.1" id="Layer_1" xmlns="http://www.w3.org/2000/svg" xmlns:xlink="http://www.w3.org/1999/xlink" x="0px" y="0px"
	 viewBox="0 0 1000 400" style="enable-background:new 0 0 1000 400;" xml:space="preserve">
<style type="text/css">
	.st0{fill:#E11B22;}
</style>
<title>CLARANET CYBER SECURITY_horizontal logo_type A</title>
<path class="st0" d="M607.7,354.7c-12,0-19.2-9.8-19.2-23.5c0-15.2,8.4-23.5,18.9-23.5s14.3,4.9,15.7,9.9l17.8-4.5
	c-4-8.8-13.7-21.5-32.9-21.5c-21.6,0-38.4,16.9-38.4,40.1c0,24,16.6,40,37.8,40c13.2,0,28.3-7.3,34.3-23.7l-18.7-3.7
	C620.6,350.5,619.3,354.7,607.7,354.7z"/>
<path class="st0" d="M754,302.7v-9.4h-18.9v76.7H754v-31.2c0-18.9,4.3-22.3,7.9-24.8c5.9-4,16.5-2.9,16.5-2.9v-18.6
	C759.2,292.4,754,302.7,754,302.7z"/>
<path class="st0" d="M858.4,355.6c-8.7,0-8.7-2.8-8.7-12.3v-36.5H864v-13.5h-14.2V266h-18.4v27.3H821v13.5h10.3v39.4
	c0,7.7,0,12.7,1.2,15.7c3.5,9.4,16.4,9.8,20.2,9.8c3,0,6.5-0.6,11.4-1.1v-15.2C861.6,355.5,859.7,355.6,858.4,355.6z"/>
<path class="st0" d="M525.7,291.6L525.7,291.6c-21.6,0.2-37.6,16.1-37.6,39.4c0,1.5,0.3,4.7,0.3,4.7c2.2,24.6,21.1,36,39.8,36
	c15.5,0,25.1-5.8,34.5-18.5l-13.2-9.9c-2.3,3.2-9.1,11.8-21.6,11.8c-11.9,0-20.1-8-22.3-19.4l57.1-0.1
	C562.7,308.6,548,291.6,525.7,291.6z M507.3,321.8c0,0,2.2-16.1,18-16.1c15.8,0,19,16.1,19,16.1L507.3,321.8z"/>
<path class="st0" d="M475.5,356.2c-6,11.4-19.2,15.5-31.2,15.5h-0.5c-12.8,0-26.3-4.4-35.4-13.6l13.4-11.1
	c5.4,6.7,13.2,9.7,21.6,9.7c5.1,0,14.9-2.1,14.9-8.8c0-2.4-1.5-4.1-3.5-5.3c-3.3-2-17.3-3.8-22.1-5c-11-2.9-21-8.9-21-21.7
	c0-11.4,9-19.5,19.1-22.7c4-1.3,8.2-1.9,12.5-1.8h0.8c12.6,0,23.9,4.4,32.3,14.1l-12.8,12c-4.1-8.2-11.7-11.5-20.4-11.5
	c-4.5,0-12.5,1.7-12.5,7.6c0,6.4,8.3,7.6,13.1,8.5c7.5,1.5,20.7,2.7,26.7,7.6c5.1,3.9,8,10.1,7.8,16.5
	C478.1,349.6,477.2,353.1,475.5,356.2z"/>
<path class="st0" d="M923.6,357.9c-2.8,9.1-5.9,24-13.7,30.4c-5,4.2-10.5,4.8-16.9,4.8c-3.5,0.1-7-0.2-10.4-1v-15.5
	c1.7,0.2,3.3,0.5,5,0.5c6.4,0,10.9-1.9,12.7-8l-28.1-75.7h19.6l17.8,50.4l14.4-50.4h19.3L923.6,357.9z"/>
<path class="st0" d="M678.3,371.7c7.5,0,15.5-3.6,21.1-9.1v7.5h18.3v-76.7h-18.3v38.6c0,0.5,0,8.5,0,9c0,8-6.1,15-15.9,15
	c-8.4,0-14.4-5.2-14.4-15.2v-47.4h-17.8v48.5c0,4.1,0,8.1,1.2,12.1C656,365.7,666.7,371.7,678.3,371.7z"/>
<rect x="791.5" y="293.2" class="st0" width="18.8" height="76.8"/>
<rect x="791.4" y="265.9" class="st0" width="18.7" height="16.9"/>
<path class="st0" d="M199,205.5l-77.4-65.9L193,283.7C230.9,194,385,37.4,385,37.4s-71.4,51.8-115.6,93.7
	C235,163.7,199,205.5,199,205.5z"/>
<path class="st0" d="M327.2,122.1c1,58.1-5.4,103.9-18.6,131.4c-31,64.4-96.9,103.4-114.5,112.9c-17.6-9.6-83.7-48.8-114.5-112.9
	c-16-33.3-22-93.4-16.9-169.8l131.4-54.3l117.2,48.4l19-14.5L194.2,7L43.4,69.3l-0.5,7.2c-3.5,47.9-5.7,135.8,18.6,186.1
	c38.6,80.4,124.7,123,128.4,124.8l4.4,2.1l4.4-2.1c3.6-1.8,89.5-43.8,128.4-124.8c21.1-43.8,22.2-115.9,19.8-165.5L327.2,122.1z"/>
<path class="st0" d="M949.2,36.2c-5.6,0-10.1-4.4-10.1-10s4.4-10.1,10-10.1s10.1,4.4,10.1,10c0,0,0,0,0,0
	C959.2,31.7,954.7,36.1,949.2,36.2z M949.2,17.8c-4.6,0-8.3,3.7-8.4,8.3c0,4.6,3.7,8.3,8.3,8.4c4.6,0,8.3-3.7,8.4-8.3c0,0,0,0,0,0
	C957.5,21.5,953.8,17.8,949.2,17.8z"/>
<path class="st0" d="M951,30.8l-1.9-3.6h-1.6v3.6h-1.8v-9.6h3.5c1.1-0.2,2.3,0.3,3,1.2c0.4,0.5,0.6,1.2,0.6,1.8
	c0,1.2-0.7,2.3-1.9,2.7l2.1,3.9H951z M949.2,22.7h-1.7v3h1.2c1.1,0,2.3-0.1,2.3-1.6C951,23.1,950.1,22.7,949.2,22.7z"/>
<path class="st0" d="M448.8,108.5c-12,0-19.2-9.8-19.2-23.5c0-15.2,8.4-23.6,18.9-23.6c10.5,0,14.3,4.9,15.7,9.9l17.8-4.6
	c-4-8.8-13.7-21.5-32.9-21.5c-21.7,0-38.4,16.9-38.4,40.2c0,24,16.6,40,37.8,40c13.2,0,28.3-7.3,34.3-23.7L464,98.1
	C461.7,104.2,460.4,108.5,448.8,108.5z"/>
<rect x="489.8" y="19.6" class="st0" width="19" height="104.1"/>
<path class="st0" d="M576,50.1c-6.7-4-14-4.9-21.3-4.9c-4.8,0-21.4,0-28.7,13.3c-1.9,3.4-2.9,7.3-3,11.2h18.7
	c-0.1-2,0.6-3.9,1.8-5.4c1.8-2.4,4.4-4.9,12-4.9c12.6,0,13.1,8.4,13.1,12.2c-8.4,1.8-6.4,1.4-21.2,4.6c-9,1.9-20.6,4.2-26.1,15.2
	c-1.6,3.2-2.4,6.8-2.4,10.4c0,13.1,10.4,23.7,27.5,23.7c7.9,0.1,15.5-2.6,21.5-7.7v5.9h18.7V74C586.6,65.8,585,55.6,576,50.1z
	 M568.5,93.9c0.2,2.3-0.2,4.7-1,6.9c-2,4.6-8.6,9.1-17.8,9.1c-7.3,0-12.3-3-12.3-9c0-8.1,9.2-10,15.6-11.3l15.5-3.2L568.5,93.9z"/>
<path class="st0" d="M706.2,50.1c-6.7-4-14-4.9-21.3-4.9c-4.9,0-21.4,0-28.7,13.3c-2.4,4.3-2.7,7.5-3,11.2h18.7
	c-0.1-2,0.6-3.9,1.8-5.4c1.8-2.4,4.4-4.9,12-4.9c12.6,0,13.1,8.4,13.1,12.2c-8.4,1.8-6.4,1.4-21.2,4.6c-9,1.9-20.6,4.2-26.1,15.2
	c-1.6,3.2-2.4,6.8-2.4,10.4c0,13.1,10.4,23.7,27.5,23.7c7.9,0.1,15.5-2.6,21.5-7.7v5.9h18.7V74C716.8,65.8,715.2,55.6,706.2,50.1z
	 M698.7,93.9c0.2,2.3-0.2,4.7-1,6.9c-2,4.6-8.6,9.1-17.8,9.1c-7.3,0-12.3-3-12.3-9c0-8.1,9.2-10,15.6-11.3l15.5-3.2L698.7,93.9z"/>
<path class="st0" d="M621.6,56.4v-9.5h-19v76.7h19V92.5c0-18.9,4.3-22.3,7.9-24.8c5.9-4,16.5-2.9,16.5-2.9V46.1
	C626.9,46.1,621.6,56.4,621.6,56.4z"/>
<path class="st0" d="M927.3,109.3c-8.7,0-8.7-2.8-8.7-12.4V60.4h14.3V46.9h-14.3V19.6h-18.4v27.3h-10.3v13.5h10.3v39.4
	c0,7.7,0,12.7,1.2,15.7c3.5,9.4,16.4,9.9,20.3,9.9c3,0,6.5-0.6,11.4-1.1v-15.2C930.5,109.3,928.5,109.3,927.3,109.3z"/>
<path class="st0" d="M772.1,45.3c-7.5,0-15.5,3.6-21.1,9.1v-7.5h-18.3v76.7H751V85.1c0-0.5,0-8.5,0-9c0-8,6.1-15,15.9-15
	c8.4,0,14.4,5.2,14.4,15.2v47.4h17.8V75.2c0-4.2,0-8.2-1.2-12.2C794.4,51.3,783.7,45.3,772.1,45.3z"/>
<path class="st0" d="M847.7,45.3L847.7,45.3c-21.7,0.2-37.6,16.1-37.6,39.4c0,1.5,0.3,4.7,0.3,4.7c2.3,24.6,21.1,36,39.8,36
	c15.5,0,25.1-5.8,34.5-18.5L871.5,97c-2.3,3.2-9.1,11.8-21.6,11.8c-11.9,0-20.1-8-22.3-19.4l57.2-0.1
	C884.7,62.3,870.1,45.3,847.7,45.3z M829.3,75.4c0,0,2.2-16.1,18-16.1s19,16.1,19,16.1H829.3z"/>
<path class="st0" d="M448.6,232.2c-12,0-19.2-9.8-19.2-23.4c0-15.1,8.4-23.4,18.8-23.4c10.5,0,14.3,4.9,15.6,9.9l17.8-4.5
	c-4-8.8-13.7-21.4-32.8-21.4c-21.6,0-38.3,16.9-38.3,40.1c0,23.9,16.6,39.9,37.7,39.9c13.2,0,28.3-7.2,34.2-23.6l-18.7-3.6
	C461.5,227.9,460.1,232.2,448.6,232.2z"/>
<path class="st0" d="M749,180.3v-9.4h-18.9v76.5H749v-31.1c0-18.8,4.2-22.3,7.9-24.7c5.8-4,16.4-2.9,16.4-2.9V170
	C754.3,170,749,180.3,749,180.3z"/>
<path class="st0" d="M680.3,169.2L680.3,169.2c-21.6,0.2-37.5,16-37.5,39.3c0,1.5,0.3,4.7,0.3,4.7c2.2,24.5,21,35.9,39.7,35.9
	c15.5,0,25-5.8,34.4-18.4l-13.2-9.9c-2.3,3.2-9.1,11.8-21.5,11.8c-11.9,0-20.1-8-22.3-19.3l56.9-0.1
	C717.1,186.2,702.5,169.2,680.3,169.2z M661.9,199.3c0,0,2.2-16.1,17.9-16.1s19,16.1,19,16.1H661.9z"/>
<path class="st0" d="M534.4,235.3c-2.8,9.1-5.9,23.9-13.6,30.3c-5,4.2-10.5,4.8-16.9,4.8c-3.5,0.1-7-0.2-10.4-1v-15.5
	c1.7,0.1,3.2,0.4,5,0.4c6.3,0,10.8-1.9,12.7-8l-28-75.5h19.6l17.7,50.3l14.3-50.3H554L534.4,235.3z"/>
<path class="st0" d="M599.1,249.7c-8.2,0-15-4.1-20.2-10.1v7.9h-18V143.6h18v34.7c6.3-5.4,13.5-8.6,21.9-8.6
	c5.6,0.1,11,1.7,15.7,4.7c11.9,7.4,17.4,21.1,17.4,34.7C633.8,229.7,621.4,249.7,599.1,249.7z M596.4,186.2
	c-12.4,0-17.7,11.5-17.7,22.4c0,11.8,4.7,24,18.4,24c13.3,0,18.1-13,18.1-24.3S608.8,186.2,596.4,186.2z"/>
</svg>
