<?xml version="1.0" encoding="utf-8"?>
<!-- Generator: Adobe Illustrator 24.2.3, SVG Export Plug-In . SVG Version: 6.00 Build 0)  -->
<svg version="1.1" id="Layer_1" xmlns="http://www.w3.org/2000/svg" xmlns:xlink="http://www.w3.org/1999/xlink" x="0px" y="0px"
	 viewBox="0 0 1810.9 580" style="enable-background:new 0 0 1810.9 580;" xml:space="preserve">
<style type="text/css">
	.st0{fill:#2EBEEF;}
	.st1{fill:#5DBE79;}
</style>
<g>
	<path class="st0" d="M226.5,342.1c1.7,0,3.3,0.7,4.4,2l12.5,13.6c-7.8,9.5-17.8,17-29,22c-11.5,5.1-25.2,7.7-41.1,7.7
		c-14.2,0-26.9-2.4-38.3-7.3c-11.1-4.6-21-11.6-29.2-20.4c-8.2-9-14.6-19.7-18.6-31.2c-4.5-12.8-6.7-26.3-6.5-39.9
		c-0.2-13.6,2.2-27.2,6.9-40c4.3-11.6,10.9-22.3,19.5-31.3c8.5-8.8,18.7-15.7,30.1-20.3c12.2-5,25.4-7.4,38.6-7.3
		c14,0,26.3,2.3,37,6.8c10.3,4.3,19.8,10.4,27.9,18.1l-10.3,14.6c-0.7,1-1.6,1.8-2.6,2.5c-1.2,0.8-2.6,1.1-4,1.1
		c-1.8,0-3.8-0.8-6.1-2.5c-2.8-2-5.7-3.8-8.7-5.5c-4.2-2.3-8.7-4.1-13.3-5.5c-5.3-1.7-12-2.5-19.9-2.5c-8.7-0.1-17.3,1.5-25.4,4.8
		c-7.6,3.1-14.4,7.9-19.9,14c-5.8,6.6-10.2,14.2-13,22.6c-3.2,9.7-4.8,20-4.6,30.2c0,11.4,1.6,21.5,4.8,30.4
		c2.9,8.3,7.4,16,13.3,22.6c5.5,6,12.3,10.8,19.9,14c7.8,3.3,16.1,4.9,24.6,4.8c4.8,0,9.7-0.3,14.4-0.9c4-0.5,8-1.4,11.8-2.7
		c3.5-1.3,6.9-2.9,10.1-4.9c3.4-2.1,6.5-4.5,9.5-7.2C222.5,343.1,224.4,342.2,226.5,342.1z"/>
	<path class="st0" d="M364.3,358.9v26.3H252.6V191.9H284v167.1H364.3z"/>
	<path class="st0" d="M548.7,288.6c0.1,13.5-2.2,27-7,39.6c-4.4,11.6-11.1,22.3-19.7,31.2c-8.6,8.9-19,15.8-30.5,20.5
		c-11.9,4.9-25,7.4-39.5,7.4s-27.6-2.5-39.4-7.4c-23.3-9.4-41.6-28.2-50.3-51.7c-9.3-25.6-9.3-53.6,0-79.2
		c4.4-11.7,11.1-22.3,19.7-31.3c8.7-8.9,19.1-15.9,30.5-20.6c12.5-5,25.9-7.5,39.4-7.3c14.5,0,27.7,2.5,39.5,7.4
		c11.5,4.7,21.9,11.7,30.5,20.6c8.6,9,15.3,19.6,19.7,31.3C546.5,261.6,548.8,275,548.7,288.6z M516.6,288.6
		c0.1-10.2-1.4-20.3-4.5-30c-2.7-8.3-7.1-16-12.9-22.6c-5.6-6.2-12.6-11.1-20.3-14.2c-17.2-6.6-36.3-6.6-53.6,0
		c-7.8,3.2-14.7,8-20.4,14.2c-5.8,6.5-10.3,14.2-13,22.6c-6.1,19.5-6.1,40.5,0,60c2.7,8.3,7.1,16,13,22.5c5.7,6.2,12.6,11,20.4,14.1
		c17.3,6.5,36.3,6.5,53.6,0c7.8-3.1,14.7-7.9,20.3-14.1c5.8-6.5,10.2-14.2,12.9-22.5C515.2,308.9,516.7,298.7,516.6,288.6
		L516.6,288.6z"/>
	<path class="st0" d="M642.2,359.9c6.8,0.1,13.6-1.2,19.9-3.8c5.7-2.4,10.8-5.9,14.9-10.5c4.2-4.7,7.4-10.2,9.3-16.2
		c2.2-6.8,3.3-13.9,3.2-21V191.9h31.3v116.6c0.1,10.8-1.7,21.5-5.4,31.6c-6.9,19-21.6,34.2-40.4,41.6c-9.7,4-20.7,6-32.8,6
		s-23.1-2-32.8-6c-18.8-7.4-33.6-22.5-40.4-41.6c-3.7-10.1-5.5-20.8-5.4-31.6V191.9H595v116.4c-0.1,7.1,1,14.2,3.2,21
		c1.9,6,5.1,11.5,9.2,16.3c4.1,4.6,9.2,8.2,14.8,10.5C628.6,358.7,635.4,360,642.2,359.9z"/>
	<path class="st0" d="M917.3,288.6c0.2,13.4-2.2,26.7-7,39.3c-8.7,23.2-27,41.5-50.2,50.4c-11.9,4.7-25,7-39.5,7h-73V191.9h73.1
		c14.5,0,27.7,2.3,39.5,7c23.2,8.8,41.4,27.2,50.2,50.4C915.1,261.8,917.4,275.1,917.3,288.6z M885.2,288.6
		c0.1-10.2-1.4-20.3-4.5-30c-2.7-8.3-7.1-15.9-12.9-22.4c-5.7-6.1-12.6-10.9-20.3-14c-8.5-3.4-17.7-5-26.8-4.9h-41.5v142.6h41.5
		c9.2,0.1,18.3-1.5,26.8-4.8c7.8-3.1,14.7-7.9,20.3-14c5.8-6.5,10.2-14.1,12.9-22.4C883.8,308.9,885.3,298.7,885.2,288.6
		L885.2,288.6z"/>
	<path class="st1" d="M966,274.6h9c2.8,0.1,5.7-0.4,8.3-1.4c2.3-1,4.2-2.6,5.8-4.5l58.6-69.8c1.7-2.3,3.9-4.1,6.4-5.4
		c2.6-1.1,5.4-1.6,8.3-1.6h26.9l-69.2,81.7c-1.7,2.1-3.5,4-5.4,5.8c-1.7,1.5-3.6,2.8-5.7,3.8c2.6,1,5.1,2.3,7.2,4.1
		c2.4,2,4.5,4.3,6.3,6.9l71.7,91.1h-27.4c-1.7,0-3.3-0.1-5-0.4c-1.3-0.2-2.5-0.6-3.6-1.2c-1-0.5-1.9-1.2-2.7-2
		c-0.8-0.8-1.5-1.7-2.1-2.7l-60.4-73.9c-0.8-1.1-1.7-2.1-2.7-3c-0.9-0.8-2-1.5-3.2-2c-1.3-0.6-2.7-1-4.1-1.1
		c-1.8-0.2-3.6-0.4-5.4-0.3H966v86.6h-31.4V191.9H966V274.6z"/>
	<path class="st1" d="M1260.9,191.9v193.4h-16c-2.1,0.1-4.2-0.4-6.2-1.3c-1.9-1-3.6-2.5-4.8-4.2l-106.2-136.4
		c0.3,2.6,0.5,5.2,0.6,7.7s0.2,4.9,0.2,7.1v127.2h-27.7V191.9h16.4c1.1,0,2.3,0.1,3.4,0.2c0.9,0.1,1.8,0.4,2.6,0.7
		c0.9,0.4,1.6,0.9,2.3,1.6c0.8,0.8,1.6,1.7,2.3,2.7l106.4,136.6c-0.3-2.8-0.5-5.5-0.6-8.2c-0.1-2.7-0.2-5.2-0.2-7.5V191.9H1260.9z"
		/>
	<path class="st1" d="M1730.3,384.6H1699c-1.9,0.1-3.8-0.5-5.2-1.8c-1.3-1.1-2.4-2.4-3.2-3.9l-48.1-77.5c-0.4,1.1-0.7,2.1-1.1,3.1
		c-0.4,1-0.9,1.9-1.4,2.8l-46.5,71.6c-1,1.4-2.1,2.7-3.3,3.9c-1.3,1.2-3,1.8-4.8,1.8h-29.3l65.3-99.4l-62.6-94h31.2
		c3.2-0.5,6.2,1.1,7.7,4l47,73.9c0.4-1.1,0.9-2.1,1.3-3.2c0.5-1.2,1.1-2.3,1.7-3.4l43.8-66.7c0.7-1.3,1.8-2.5,3-3.4
		c1.1-0.8,2.5-1.2,3.9-1.1h30l-63.1,92.7L1730.3,384.6z"/>
	<path class="st1" d="M1422.3,434c-79.5,0-144-64.4-144-144c0-79.5,64.4-144,144-144c79.5,0,144,64.4,144,144
		c0,40.4-16.9,78.9-46.6,106.1c-3.8,3.3-9.6,2.9-12.9-0.9c-3.2-3.7-3-9.2,0.5-12.6c50.8-46.8,54.1-126,7.3-176.8
		c-46.8-50.8-126-54.1-176.8-7.3s-54.1,126-7.3,176.8c29.7,32.3,74.2,46.6,117.1,37.8c5-0.9,9.7,2.5,10.6,7.4
		c0.8,4.8-2.2,9.4-6.9,10.5C1441.8,433,1432.1,434,1422.3,434z"/>
	<path class="st1" d="M1422.6,391.9c-56.2,0-101.7-45.5-101.7-101.7c0-27,10.7-52.8,29.8-71.9c2.7-2.7,7-2.7,9.7,0s2.7,7,0,9.7l0,0
		c-35.2,33.5-36.7,89.2-3.2,124.4s89.2,36.7,124.4,3.2c1.1-1,2.2-2.1,3.2-3.2c4.2-4.2,8-8.8,11.3-13.8c2-3.2,6.3-4.1,9.5-2.1
		c3.2,2,4.1,6.3,2.1,9.5c0,0.1-0.1,0.1-0.1,0.2c-3.8,5.7-8.1,11.1-13,15.9C1475.5,381.3,1449.6,392,1422.6,391.9z"/>
	<path class="st1" d="M1422.1,366.8c-42.2,0-76.5-34.2-76.5-76.5s34.2-76.5,76.5-76.5c42.2,0,76.5,34.2,76.5,76.5c0,0,0,0,0,0
		C1498.5,332.5,1464.3,366.7,1422.1,366.8z M1422.1,223c-37.2,0-67.3,30.2-67.3,67.3s30.2,67.4,67.3,67.4
		c37.2,0,67.3-30.2,67.3-67.3c0,0,0,0,0,0C1489.4,253.1,1459.3,223,1422.1,223L1422.1,223z"/>
	<path class="st1" d="M1422.3,348c-32.8,0-59.3-26.6-59.4-59.4c-0.1-2.5,1.8-4.7,4.4-4.8c2.5-0.1,4.7,1.8,4.8,4.4c0,0.1,0,0.3,0,0.4
		c0,27.7,22.5,50.2,50.3,50.2c27.7,0,50.2-22.5,50.2-50.2c0-2.5,2-4.6,4.6-4.6c2.5,0,4.6,2,4.6,4.6
		C1481.7,321.4,1455.1,347.9,1422.3,348z"/>
	<path class="st1" d="M1419.7,333.8c-2.5,0-4.6-2-4.6-4.6s2-4.6,4.6-4.6c21-0.8,37.4-18.4,36.6-39.4c-0.7-19.9-16.7-35.9-36.6-36.6
		l0,0c-2.5,0.1-4.7-1.8-4.8-4.4c-0.1-2.5,1.8-4.7,4.4-4.8c0.1,0,0.3,0,0.4,0l0,0c26,0,47.1,21.1,47.1,47.1
		C1466.8,312.7,1445.8,333.8,1419.7,333.8L1419.7,333.8z"/>
</g>
</svg>
