<?xml version="1.0" encoding="utf-8"?>
<!-- Generator: Adobe Illustrator 22.1.0, SVG Export Plug-In . SVG Version: 6.00 Build 0)  -->
<svg version="1.1" id="Layer_1" xmlns="http://www.w3.org/2000/svg" xmlns:xlink="http://www.w3.org/1999/xlink" x="0px" y="0px"
	 viewBox="0 0 125 50" style="enable-background:new 0 0 125 50;" xml:space="preserve">
<style type="text/css">
	.st0{fill:#FFFFFF;}
</style>
<title>intel_wht_rgb_62</title>
<path class="st0" d="M61,41c-12.2,1.1-25-0.7-26.8-10.2c-0.9-4.7,1.3-9.7,4.1-12.8v-1.7c-5.1,4.5-7.9,10.2-6.3,17
	c2,8.6,13,13.5,29.7,11.9C68.3,44.5,77,42.4,83,39v-4.7C77.5,37.6,68.5,40.3,61,41z M93.2,16.2C90.3,2,62.8,1.1,45,11.9v1.2
	C62.8,4,87.9,4,90.2,17.1c0.8,4.3-1.7,8.8-6,11.4v3.4C89.4,30,94.8,23.8,93.2,16.2z"/>
<path class="st0" d="M82,14.1h-3.2v14.3c0,1.7,0.8,3.1,3.2,3.4V14.1z"/>
<path class="st0" d="M43.8,19.3h-3.2v9.3c-0.1,1.7,1.2,3.2,2.9,3.4c0.1,0,0.2,0,0.3,0L43.8,19.3z"/>
<rect x="40.5" y="14.5" class="st0" width="3.2" height="3.1"/>
<path class="st0" d="M63,31.9c-1.9,0.2-3.5-1.3-3.7-3.1c0-0.1,0-0.3,0-0.4V15.9h3.2v3.4h2.4v2.6h-2.4v6.2c-0.1,0.5,0.3,1.1,0.9,1.1
	c0.1,0,0.2,0,0.3,0h1.3v2.6H63"/>
<path class="st0" d="M68.8,26.6c-0.1,1.5,1,2.7,2.4,2.8c0.1,0,0.3,0,0.4,0c1.1,0.1,2.2-0.4,2.9-1.2l2,1.9c-1.3,1.4-3.1,2.1-4.9,2
	c-3,0-6-1.7-6-6.5c0-4.1,2.6-6.5,5.9-6.5c3.3,0,5.3,2.8,5.3,6.4v1.1H68.8 M71.4,21.8c-1,0-1.8,0.5-2.3,1.3c-0.2,0.4-0.3,0.9-0.3,1.4
	h4.9C73.7,23.1,73.1,21.8,71.4,21.8z"/>
<path class="st0" d="M52.4,21.9c0.9,0,1.3,0.5,1.3,1.2v8.8h3.2v-8.8c0.1-1.9-1.3-3.6-3.2-3.8c-0.2,0-0.4,0-0.5,0h-6.6v12.6h3.2v-10
	L52.4,21.9z"/>
<path class="st0" d="M85.5,16.7c-0.7,0-1.3-0.6-1.3-1.3s0.6-1.3,1.3-1.3c0.7,0,1.3,0.6,1.3,1.3c0,0,0,0,0,0
	C86.8,16.1,86.2,16.7,85.5,16.7z M85.5,14.3c-0.6,0-1.1,0.4-1.1,1c0,0.6,0.4,1.1,1,1.1c0.6,0,1.1-0.4,1.1-1c0,0,0,0,0-0.1
	C86.5,14.8,86.1,14.4,85.5,14.3z M86.1,16.1h-0.2l0,0l-0.3-0.6l0,0h-0.2v0.6c0,0,0,0.1-0.1,0.1l0,0h-0.2c0,0-0.1,0-0.1-0.1v-1.4
	c0-0.1,0-0.1,0.1-0.1h0.4c0.4,0,0.6,0.1,0.6,0.5l0,0c0,0.2-0.1,0.4-0.3,0.4l0.3,0.6l0,0C86.2,16.1,86.2,16.2,86.1,16.1
	C86.1,16.2,86,16.2,86.1,16.1L86.1,16.1z M85.8,15.1c0-0.2-0.1-0.2-0.3-0.2h-0.2v0.4h0.2C85.7,15.3,85.8,15.2,85.8,15.1L85.8,15.1z"
	/>
</svg>
